<svg width="43" height="15" viewBox="0 0 43 15" fill="none" xmlns="http://www.w3.org/2000/svg">
<g clip-path="url(#clip0_2:489)">
<path d="M17.2085 5.02133H14.5587V3.45435H21.7684V5.02133H19.1053V12.281H17.2085V5.02133Z" fill="#2A21A3"/>
<path d="M28.0999 6.21717V12.2865H26.4149V11.5523H26.3821C25.9109 12.1112 25.2523 12.3906 24.4063 12.3906C23.9723 12.3938 23.5418 12.3175 23.1403 12.1659C22.7615 12.0234 22.4195 11.8092 22.1368 11.5372C21.8458 11.2527 21.6219 10.916 21.4792 10.5483C21.1611 9.72465 21.1611 8.82556 21.4792 8.00192C21.6223 7.63223 21.8432 7.29203 22.1293 7.00065C22.4124 6.71995 22.7556 6.49614 23.1376 6.3434C23.5195 6.19063 23.9316 6.11219 24.3482 6.11306C24.7168 6.10152 25.0836 6.16661 25.4211 6.30344C25.7585 6.44031 26.058 6.64537 26.2971 6.9034H26.324V6.21855L28.0999 6.21717ZM25.9198 10.4716C26.0822 10.3114 26.2083 10.1232 26.291 9.91798C26.3737 9.71272 26.4112 9.49447 26.4015 9.27582C26.4178 8.83076 26.2488 8.39673 25.9288 8.0622C25.7812 7.90553 25.5977 7.78083 25.3915 7.697C25.1852 7.61317 24.9614 7.5723 24.7359 7.5773C24.5091 7.57218 24.2838 7.61116 24.0746 7.69164C23.8654 7.77217 23.6771 7.89238 23.5221 8.0444C23.3569 8.21045 23.2291 8.40484 23.1459 8.6164C23.0627 8.82793 23.0259 9.05248 23.0375 9.27716C23.017 9.71721 23.1863 10.1469 23.5087 10.473C23.6663 10.6192 23.8539 10.7353 24.0608 10.8146C24.2676 10.8939 24.4894 10.9346 24.7135 10.9346C24.9376 10.9346 25.1594 10.8939 25.3662 10.8146C25.573 10.7353 25.7607 10.6192 25.9184 10.473L25.9198 10.4716Z" fill="#2A21A3"/>
<path d="M29.6478 3.13391H31.4193V12.2865H29.6478V3.13391Z" fill="#2A21A3"/>
<path d="M33.0983 3.13391H34.8683V12.2865H33.0983V3.13391Z" fill="#2A21A3"/>
<path d="M42.5149 6.21716L38.9615 14.7452H37.1423L38.3189 11.9112L35.681 6.21716H37.5315L39.1509 9.97436H39.1703L40.6838 6.21716H42.5149Z" fill="#2A21A3"/>
<path d="M11.1146 4.42418V7.44858L8.5677 6.09801V12.3303L5.70767 10.8127V4.58168L3.16077 3.23112V0.206726L11.1146 4.42418Z" fill="#2A21A3"/>
<path d="M9.84117 5.11182V8.13621L7.29576 6.78565V13.018L4.43423 11.5003V5.26936L1.88882 3.91877V0.894379L9.84117 5.11182Z" fill="#725BFF"/>
<path d="M8.56772 5.79939V8.82379L6.02231 7.47322V13.7055L3.16226 12.1879V5.95689L0.615356 4.60633V1.58194L8.56772 5.79939Z" fill="#00E6CD"/>
</g>
<defs>
<clipPath id="clip0_2:489">
<rect width="42" height="14.5688" fill="white" transform="translate(0.615356 0.206726)"/>
</clipPath>
</defs>
</svg>
